<?xml version="1.0" encoding="utf-8"?>
<!-- Generator: Adobe Illustrator 16.0.0, SVG Export Plug-In . SVG Version: 6.00 Build 0)  -->
<!DOCTYPE svg PUBLIC "-//W3C//DTD SVG 1.1//EN" "http://www.w3.org/Graphics/SVG/1.1/DTD/svg11.dtd">
<svg version="1.1" id="Laag_1" xmlns="http://www.w3.org/2000/svg" xmlns:xlink="http://www.w3.org/1999/xlink" x="0px" y="0px"
	 width="200px" height="200px" viewBox="0 0 200 200" enable-background="new 0 0 200 200" xml:space="preserve">
<ellipse cx="53.792" cy="79.036" rx="3.763" ry="3.449"/>
<ellipse cx="147.124" cy="79.036" rx="3.763" ry="3.449"/>
<g>
	<path fill="#EA5569" stroke="#000000" stroke-width="3" stroke-miterlimit="10" d="M186.381,102.701
		c0,47.369-38.396,85.765-85.765,85.765c-47.365,0-85.764-38.396-85.764-85.765c0-47.367,38.399-85.764,85.764-85.764
		C147.985,16.938,186.381,55.334,186.381,102.701z"/>
	<ellipse cx="49.074" cy="77.556" rx="4.027" ry="3.689"/>
	<ellipse cx="152.162" cy="77.556" rx="4.027" ry="3.689"/>
	<g>
		<path fill="none" stroke="#000000" stroke-width="3" stroke-miterlimit="10" d="M101.369,96.434
			c58.95,3.227,56.156,61.561,55.317,45.711"/>
		<path fill="none" stroke="#000000" stroke-width="3" stroke-miterlimit="10" d="M101.369,96.434
			c-59.026,1.357-58.08,59.752-56.74,43.935"/>
	</g>
	<path d="M66.66,69.116c2.072,1.731,2.676,4.424,1.347,6.011l0,0c-1.325,1.589-4.082,1.466-6.156-0.267l-10.725-8.972
		c-2.07-1.732-2.676-4.423-1.35-6.013l0,0c1.33-1.585,4.086-1.463,6.156,0.269L66.66,69.116z"/>
	<path d="M134.577,69.116c-2.073,1.731-2.676,4.424-1.35,6.011l0,0c1.326,1.589,4.082,1.466,6.154-0.267l10.728-8.972
		c2.067-1.732,2.676-4.423,1.35-6.013l0,0c-1.33-1.585-4.086-1.463-6.157,0.269L134.577,69.116z"/>
</g>
</svg>
