<?xml version="1.0" encoding="utf-8"?>
<!-- Generator: Adobe Illustrator 16.0.0, SVG Export Plug-In . SVG Version: 6.00 Build 0)  -->
<!DOCTYPE svg PUBLIC "-//W3C//DTD SVG 1.1//EN" "http://www.w3.org/Graphics/SVG/1.1/DTD/svg11.dtd">
<svg version="1.1" id="Laag_1" xmlns="http://www.w3.org/2000/svg" xmlns:xlink="http://www.w3.org/1999/xlink" x="0px" y="0px"
	 width="200px" height="200px" viewBox="0 0 200 200" enable-background="new 0 0 200 200" xml:space="preserve">
<ellipse cx="53.792" cy="79.036" rx="3.763" ry="3.449"/>
<ellipse cx="147.124" cy="79.036" rx="3.763" ry="3.449"/>
<g>
	<path fill="#3E84B5" stroke="#000000" stroke-width="3" stroke-miterlimit="10" d="M185.202,102.328
		c0,46.61-37.784,84.393-84.393,84.393c-46.605,0-84.391-37.782-84.391-84.393c0-46.609,37.786-84.391,84.391-84.391
		C147.418,17.938,185.202,55.719,185.202,102.328z"/>
	<path d="M58.017,77.586c0,2.006-1.776,3.629-3.963,3.629s-3.962-1.623-3.962-3.629c0-2.008,1.776-3.632,3.962-3.632
		S58.017,75.578,58.017,77.586z"/>
	<path d="M159.453,77.586c0,2.006-1.772,3.629-3.961,3.629c-2.19,0-3.963-1.623-3.963-3.629c0-2.008,1.772-3.632,3.963-3.632
		C157.681,73.954,159.453,75.578,159.453,77.586z"/>
	<g>
		<path fill="none" stroke="#000000" stroke-width="3" stroke-miterlimit="10" d="M101.551,96.162
			c58.01,3.175,55.259,60.577,54.434,44.979"/>
		<path fill="none" stroke="#000000" stroke-width="3" stroke-miterlimit="10" d="M101.551,96.162
			c-58.08,1.335-57.15,58.797-55.831,43.231"/>
	</g>
</g>
</svg>
