<?xml version="1.0" encoding="utf-8"?>
<!-- Generator: Adobe Illustrator 16.0.0, SVG Export Plug-In . SVG Version: 6.00 Build 0)  -->
<!DOCTYPE svg PUBLIC "-//W3C//DTD SVG 1.1//EN" "http://www.w3.org/Graphics/SVG/1.1/DTD/svg11.dtd">
<svg version="1.1" id="Laag_1" xmlns="http://www.w3.org/2000/svg" xmlns:xlink="http://www.w3.org/1999/xlink" x="0px" y="0px"
	 width="200px" height="200px" viewBox="0 0 200 200" enable-background="new 0 0 200 200" xml:space="preserve">
<ellipse cx="53.792" cy="79.036" rx="3.763" ry="3.449"/>
<ellipse cx="147.124" cy="79.036" rx="3.763" ry="3.449"/>
<ellipse cx="49.074" cy="77.556" rx="4.027" ry="3.689"/>
<ellipse cx="152.162" cy="77.556" rx="4.027" ry="3.689"/>
<path fill="none" stroke="#000000" stroke-width="3" stroke-miterlimit="10" d="M101.369,96.434
	c58.95,3.227,56.156,61.561,55.317,45.711"/>
<path fill="none" stroke="#000000" stroke-width="3" stroke-miterlimit="10" d="M101.369,96.434
	c-59.026,1.357-58.08,59.752-56.74,43.935"/>
<path d="M66.66,69.116c2.072,1.731,2.676,4.424,1.347,6.011l0,0c-1.325,1.589-4.082,1.466-6.156-0.267l-10.725-8.972
	c-2.07-1.732-2.676-4.423-1.35-6.013l0,0c1.33-1.585,4.086-1.463,6.156,0.269L66.66,69.116z"/>
<path d="M134.577,69.116c-2.073,1.731-2.676,4.424-1.35,6.011l0,0c1.326,1.589,4.082,1.466,6.154-0.267l10.728-8.972
	c2.067-1.732,2.676-4.423,1.35-6.013l0,0c-1.33-1.585-4.086-1.463-6.157,0.269L134.577,69.116z"/>
<g>
	<path fill="#274E9C" stroke="#000000" stroke-width="3" stroke-miterlimit="10" d="M185.861,102.645
		c0,46.83-37.963,84.792-84.794,84.792c-46.826,0-84.792-37.962-84.792-84.792c0-46.83,37.966-84.791,84.792-84.791
		C147.898,17.854,185.861,55.815,185.861,102.645z"/>
	<ellipse cx="50.111" cy="77.784" rx="3.981" ry="3.647"/>
	<ellipse cx="152.028" cy="77.784" rx="3.981" ry="3.647"/>
	<path fill="none" stroke="#000000" stroke-width="3" stroke-miterlimit="10" d="M101.81,96.448
		c58.285,3.191,55.521,60.864,54.693,45.192"/>
	<path fill="none" stroke="#000000" stroke-width="3" stroke-miterlimit="10" d="M101.81,96.448
		c-58.352,1.342-57.42,59.076-56.095,43.436"/>
	<path d="M51.168,89.83c0,0-10.665,17.329-0.706,16.239C50.462,106.068,57.952,108.774,51.168,89.83z"/>
</g>
</svg>
