<?xml version="1.0" encoding="utf-8"?>
<!-- Generator: Adobe Illustrator 16.0.0, SVG Export Plug-In . SVG Version: 6.00 Build 0)  -->
<!DOCTYPE svg PUBLIC "-//W3C//DTD SVG 1.1//EN" "http://www.w3.org/Graphics/SVG/1.1/DTD/svg11.dtd">
<svg version="1.1" id="Layer_1" xmlns="http://www.w3.org/2000/svg" xmlns:xlink="http://www.w3.org/1999/xlink" x="0px" y="0px"
	 width="126px" height="126px" viewBox="0 0 126 126" enable-background="new 0 0 126 126" xml:space="preserve">
<path stroke="#6D6E70" stroke-width="0" stroke-linecap="round" stroke-linejoin="round" d="M25.486,25.483
	C4.799,46.17,4.801,79.828,25.488,100.517c20.682,20.685,54.34,20.685,75.027-0.005c20.686-20.684,20.684-54.34,0.002-75.023
	C79.828,4.799,46.17,4.799,25.486,25.483z M94.729,94.728c-17.494,17.493-45.963,17.495-63.455,0.003
	c-17.498-17.498-17.496-45.967,0-63.461c17.492-17.492,45.959-17.494,63.457,0.003C112.225,48.766,112.223,77.234,94.729,94.728z
	 M51.797,57.215c-2.42,2.421-6.348,2.421-8.771-0.002c-2.42-2.42-2.42-6.348,0-8.769c2.422-2.421,6.35-2.421,8.77,0.001
	C54.217,50.867,54.217,54.795,51.797,57.215z M84.18,48.538c2.42,2.421,2.42,6.349,0,8.769c-2.424,2.423-6.352,2.423-8.771,0.002
	c-2.42-2.42-2.42-6.348,0.002-8.77C77.83,46.117,81.758,46.117,84.18,48.538z M72.85,80.588l-2.678,2.681l2.678,2.676
	c0.957,0.959,1.486,2.233,1.486,3.586c0,1.355-0.527,2.63-1.486,3.588c-1.916,1.918-5.254,1.92-7.174,0l-2.678-2.675l-2.676,2.675
	c-0.959,0.961-2.232,1.487-3.588,1.487c-1.354,0-2.627-0.528-3.586-1.487c-1.977-1.975-1.977-5.193,0-7.17l2.678-2.68l-2.68-2.679
	c-1.877-1.878-1.973-4.916-0.219-6.919c0.039-0.052,0.119-0.147,0.209-0.237c1.945-1.946,5.268-1.935,7.184-0.019l2.678,2.68
	l2.68-2.68c1.824-1.825,4.973-1.921,6.918-0.22c0.063,0.047,0.162,0.131,0.254,0.224c0.957,0.957,1.486,2.229,1.486,3.582
	C74.338,78.357,73.809,79.629,72.85,80.588z"/>
</svg>
