<?xml version="1.0" encoding="utf-8"?>
<!-- Generator: Adobe Illustrator 16.0.0, SVG Export Plug-In . SVG Version: 6.00 Build 0)  -->
<!DOCTYPE svg PUBLIC "-//W3C//DTD SVG 1.1//EN" "http://www.w3.org/Graphics/SVG/1.1/DTD/svg11.dtd">
<svg version="1.1" id="Layer_1" xmlns="http://www.w3.org/2000/svg" xmlns:xlink="http://www.w3.org/1999/xlink" x="0px" y="0px"
	 width="126px" height="126px" viewBox="0 0 126 126" enable-background="new 0 0 126 126" xml:space="preserve">
<path stroke="#6D6E70" stroke-width="0" stroke-linecap="round" stroke-linejoin="round" d="M25.486,25.483
	C4.799,46.169,4.801,79.829,25.488,100.517c20.682,20.684,54.341,20.684,75.027-0.004c20.686-20.684,20.684-54.341,0.002-75.024
	C79.83,4.799,46.17,4.799,25.486,25.483z M94.728,94.728c-17.494,17.494-45.961,17.496-63.455,0.002
	c-17.498-17.497-17.496-45.966,0-63.46c17.493-17.493,45.958-17.495,63.457,0.002C112.224,48.766,112.222,77.235,94.728,94.728z
	 M80.681,67.304H45.32c-4.687,0-8.486,3.8-8.486,8.486v9.752c0,4.687,3.799,8.486,8.486,8.486h35.361c4.687,0,8.486-3.8,8.486-8.486
	v-9.752C89.167,71.104,85.368,67.304,80.681,67.304z M48.925,90.725h-5.322c-1.297-0.938-2.271-2.293-2.725-3.872v-4.175h8.047
	V90.725z M48.925,78.655h-8.047V74.48c0.454-1.578,1.428-2.933,2.725-3.872h5.322V78.655z M60.982,90.725h-8.033v-8.046h8.033
	V90.725z M60.982,78.655h-8.033v-8.047h8.033V78.655z M73.052,90.725h-8.033v-8.046h8.033V90.725z M73.052,78.655h-8.033v-8.047
	h8.033V78.655z M85.123,86.853c-0.454,1.578-1.428,2.933-2.725,3.872h-5.322v-8.046h8.047V86.853z M85.123,78.655h-8.047v-8.047
	h5.322c1.297,0.939,2.271,2.294,2.725,3.872V78.655z M38.355,46.588c-1.229-1.229-1.229-3.222,0-4.451
	c1.229-1.229,3.222-1.229,4.451,0l9.456,9.455c0.014,0.014,0.023,0.031,0.038,0.046c1.16,1.127,1.884,2.701,1.884,4.446
	c0,3.426-2.777,6.203-6.2,6.203c-3.423,0-6.201-2.777-6.201-6.203c0-1.678,0.67-3.198,1.754-4.315L38.355,46.588z M71.815,56.085
	c0-1.745,0.724-3.319,1.884-4.446c0.014-0.015,0.023-0.032,0.038-0.046l9.456-9.455c1.229-1.229,3.222-1.229,4.451,0
	c1.229,1.229,1.229,3.222-0.001,4.451l-5.181,5.182c1.083,1.117,1.753,2.637,1.753,4.315c0,3.426-2.777,6.203-6.2,6.203
	S71.815,59.511,71.815,56.085z"/>
</svg>
