<?xml version="1.0" encoding="utf-8"?>
<!-- Generator: Adobe Illustrator 16.0.0, SVG Export Plug-In . SVG Version: 6.00 Build 0)  -->
<!DOCTYPE svg PUBLIC "-//W3C//DTD SVG 1.1//EN" "http://www.w3.org/Graphics/SVG/1.1/DTD/svg11.dtd">
<svg version="1.1" id="Layer_1" xmlns="http://www.w3.org/2000/svg" xmlns:xlink="http://www.w3.org/1999/xlink" x="0px" y="0px"
	 width="126px" height="126px" viewBox="0 0 126 126" enable-background="new 0 0 126 126" xml:space="preserve">
<path stroke="#6D6E70" stroke-width="0" stroke-linecap="round" stroke-linejoin="round" d="M102.784,100.512
	c20.686-20.684,20.684-54.341,0.002-75.024C82.098,4.799,48.438,4.799,27.755,25.483C7.067,46.169,7.069,79.829,27.757,100.517
	C48.438,121.201,82.098,121.201,102.784,100.512z M33.542,31.27c17.493-17.493,45.959-17.495,63.457,0.002
	c17.494,17.494,17.492,45.962-0.002,63.455c-17.494,17.494-45.962,17.496-63.455,0.002C16.044,77.233,16.046,48.764,33.542,31.27z
	 M36.009,49.775c0-1.738,1.409-3.147,3.147-3.147l13.373-0.001c0.027,0,0.054,0.007,0.081,0.008c1.61-0.018,3.226,0.581,4.453,1.809
	c2.423,2.423,2.423,6.35,0.003,8.771c-2.421,2.42-6.349,2.42-8.771-0.002c-1.186-1.187-1.782-2.736-1.806-4.292h-7.333
	C37.418,52.922,36.009,51.513,36.009,49.775z M74.861,49.869c0-1.738,1.409-3.147,3.147-3.147l13.373-0.001
	c0.028,0,0.054,0.007,0.081,0.008c1.61-0.018,3.226,0.581,4.453,1.809c2.423,2.423,2.423,6.35,0.003,8.771
	c-2.421,2.42-6.349,2.42-8.771-0.002c-1.187-1.187-1.782-2.736-1.806-4.292h-7.333C76.271,53.016,74.861,51.607,74.861,49.869z
	 M45.685,75.531c9.86,0.311,32.958,1.909,34.469,10.011c0.253,1.357-0.643,2.663-2,2.916c-0.154,0.029-0.309,0.043-0.461,0.043
	c-1.181,0-2.23-0.84-2.455-2.042c-0.005-0.026-1.085-2.696-14.428-4.593c-7.636-1.086-15.207-1.334-15.283-1.337
	c-1.38-0.043-2.463-1.197-2.42-2.577c0.043-1.354,1.153-2.421,2.498-2.421C45.631,75.529,45.657,75.53,45.685,75.531z"/>
</svg>
