<?xml version="1.0" encoding="utf-8"?>
<!-- Generator: Adobe Illustrator 16.0.0, SVG Export Plug-In . SVG Version: 6.00 Build 0)  -->
<!DOCTYPE svg PUBLIC "-//W3C//DTD SVG 1.1//EN" "http://www.w3.org/Graphics/SVG/1.1/DTD/svg11.dtd">
<svg version="1.1" id="Layer_1" xmlns="http://www.w3.org/2000/svg" xmlns:xlink="http://www.w3.org/1999/xlink" x="0px" y="0px"
	 width="126px" height="126px" viewBox="0 0 126 126" enable-background="new 0 0 126 126" xml:space="preserve">
<path stroke="#6D6E70" stroke-width="0" stroke-linecap="round" stroke-linejoin="round" d="M25.486,25.483
	C4.798,46.17,4.8,79.828,25.488,100.517c20.682,20.685,54.341,20.685,75.027-0.005c20.686-20.684,20.684-54.34,0.002-75.023
	C79.829,4.8,46.17,4.8,25.486,25.483z M94.728,94.728c-17.494,17.493-45.961,17.495-63.455,0.003
	c-17.498-17.498-17.496-45.967,0-63.461c17.494-17.492,45.959-17.494,63.457,0.003C112.224,48.766,112.222,77.234,94.728,94.728z
	 M64.06,69.342c10.084,0,19.084,5.742,22.928,14.629c0.658,1.521-0.042,3.287-1.563,3.945c-1.521,0.659-3.286-0.042-3.944-1.563
	c-2.893-6.689-9.731-11.012-17.421-11.012c-7.868,0-14.747,4.32-17.523,11.005c-0.479,1.153-1.596,1.85-2.771,1.851
	c-0.384,0-0.773-0.074-1.15-0.23c-1.53-0.637-2.255-2.393-1.62-3.922C44.706,75.113,53.759,69.342,64.06,69.342z M40.016,43.444
	c-1.102-0.073-1.936-1.026-1.863-2.128c0.073-1.101,1.01-1.938,2.125-1.863c0.087,0.006,8.679,0.498,11.91-3.958
	c0.648-0.896,1.9-1.092,2.793-0.445c0.894,0.648,1.093,1.899,0.445,2.793c-3.717,5.125-11.401,5.632-14.292,5.632
	C40.499,43.475,40.096,43.45,40.016,43.444z M55.614,50.64c0,1.315-0.412,2.533-1.11,3.537c-1.127-1.549-2.949-2.561-5.011-2.561
	c-2.108,0-3.97,1.057-5.09,2.666c-0.744-1.023-1.189-2.279-1.189-3.643c0-3.424,2.777-6.201,6.2-6.201
	C52.837,44.438,55.614,47.216,55.614,50.64z M71.53,37.806c-0.648-0.894-0.449-2.145,0.445-2.793
	c0.894-0.646,2.145-0.45,2.793,0.445c3.231,4.456,11.823,3.964,11.91,3.958c1.116-0.074,2.052,0.763,2.125,1.863
	c0.073,1.102-0.761,2.055-1.863,2.128c-0.08,0.006-0.483,0.03-1.119,0.03C82.931,43.438,75.247,42.931,71.53,37.806z M77.543,44.401
	c3.423,0,6.2,2.777,6.2,6.201c0,1.363-0.445,2.619-1.189,3.643c-1.12-1.609-2.981-2.666-5.09-2.666
	c-2.062,0-3.884,1.012-5.011,2.561c-0.698-1.004-1.11-2.222-1.11-3.537C71.343,47.179,74.12,44.401,77.543,44.401z M43.167,69.764
	c-3.6,0-3.6-3.994-3.6-3.994c0.001-3.436,4.555-7.535,4.555-7.535c0.438,2.747,1.52,4.344,1.52,4.344
	c1.218,1.818,1.218,3.508,1.218,3.508C46.86,69.797,43.167,69.764,43.167,69.764z"/>
</svg>
