<?xml version="1.0" encoding="utf-8"?>
<!-- Generator: Adobe Illustrator 16.0.0, SVG Export Plug-In . SVG Version: 6.00 Build 0)  -->
<!DOCTYPE svg PUBLIC "-//W3C//DTD SVG 1.1//EN" "http://www.w3.org/Graphics/SVG/1.1/DTD/svg11.dtd">
<svg version="1.1" id="Layer_1" xmlns="http://www.w3.org/2000/svg" xmlns:xlink="http://www.w3.org/1999/xlink" x="0px" y="0px"
	 width="126px" height="126px" viewBox="0 0 126 126" enable-background="new 0 0 126 126" xml:space="preserve">
<path stroke="#6D6E70" stroke-width="0" stroke-linecap="round" stroke-linejoin="round" d="M25.487,25.483
	C4.798,46.169,4.8,79.829,25.489,100.517c20.682,20.684,54.341,20.684,75.026-0.004c20.686-20.684,20.684-54.341,0.002-75.024
	C79.83,4.799,46.17,4.799,25.487,25.483z M94.728,94.728c-17.493,17.494-45.961,17.496-63.455,0.002
	c-17.498-17.497-17.495-45.966,0-63.46c17.494-17.493,45.96-17.495,63.457,0.002C112.224,48.766,112.222,77.235,94.728,94.728z
	 M87.321,71.816l-48.638-0.068c0,0-0.001,0-0.002,0c-0.479,0-0.926,0.273-1.191,0.729c-0.267,0.455-0.316,1.033-0.132,1.54
	c4.134,11.375,14.228,18.725,25.714,18.725c11.245,0,21.28-7.315,25.563-18.636c0.191-0.506,0.148-1.089-0.117-1.55
	S87.803,71.817,87.321,71.816z M51.86,87.338c-2.64-1.154-5.017-2.712-7.013-4.615h7.013V87.338z M51.86,79.422h-9.785v-4.95
	l9.785,0.011V79.422z M65.204,89.532c-0.728,0.057-1.46,0.095-2.2,0.095c-2.636,0-5.186-0.36-7.585-1.024v-5.88h9.785V89.532z
	 M65.204,79.422h-9.785v-4.935l9.785,0.011V79.422z M78.546,84.738c-2.835,2.045-6.17,3.52-9.785,4.283v-6.299h9.785V84.738z
	 M78.546,79.422h-9.785v-4.92l9.785,0.012V79.422z M85.744,76.173c-0.533,1.144-1.178,2.225-1.9,3.249h-1.738v-4.904l2.469,0.002
	c0.43,0.001,0.828,0.202,1.065,0.534C85.875,75.388,85.914,75.808,85.744,76.173z M42.655,46.979c0-1.025,0.365-2.114,1.002-2.988
	c0.729-1,1.684-1.551,2.691-1.551c1,0,1.942,0.437,2.625,1.173c0.684-0.736,1.626-1.173,2.626-1.173
	c1.006,0,1.961,0.551,2.688,1.551c0.637,0.874,1.002,1.963,1.002,2.988c0,1.628-1.006,3.473-2.991,5.485
	c-1.414,1.434-2.812,2.425-2.87,2.466c-0.137,0.097-0.296,0.145-0.455,0.145c-0.156,0-0.313-0.046-0.446-0.138
	C48.287,54.772,42.655,50.869,42.655,46.979z M70.774,46.979c0-1.025,0.365-2.114,1.002-2.988c0.729-1,1.684-1.551,2.691-1.551
	c1,0,1.942,0.437,2.625,1.173c0.684-0.736,1.626-1.173,2.626-1.173c1.006,0,1.961,0.551,2.688,1.551
	c0.637,0.874,1.002,1.963,1.002,2.988c0,1.628-1.006,3.473-2.991,5.485c-1.414,1.434-2.812,2.425-2.87,2.466
	c-0.137,0.097-0.296,0.145-0.455,0.145c-0.156,0-0.313-0.046-0.446-0.138C76.406,54.772,70.774,50.869,70.774,46.979z"/>
</svg>
